<?xml version="1.0" encoding="UTF-8" standalone="no"?>
<!-- Created with Inkscape (http://www.inkscape.org/) -->

<svg
   width="48"
   height="48"
   viewBox="0 0 48 48"
   version="1.1"
   id="svg1"
   inkscape:version="1.3.2 (091e20e, 2023-11-25, custom)"
   sodipodi:docname="OpenArena48px.svg"
   xmlns:inkscape="http://www.inkscape.org/namespaces/inkscape"
   xmlns:sodipodi="http://sodipodi.sourceforge.net/DTD/sodipodi-0.dtd"
   xmlns="http://www.w3.org/2000/svg"
   xmlns:svg="http://www.w3.org/2000/svg">
  <sodipodi:namedview
     id="namedview1"
     pagecolor="#ffffff"
     bordercolor="#000000"
     borderopacity="0.25"
     inkscape:showpageshadow="2"
     inkscape:pageopacity="0.0"
     inkscape:pagecheckerboard="0"
     inkscape:deskcolor="#d1d1d1"
     inkscape:document-units="mm"
     inkscape:zoom="11.075084"
     inkscape:cx="18.961481"
     inkscape:cy="23.701852"
     inkscape:window-width="1920"
     inkscape:window-height="991"
     inkscape:window-x="-9"
     inkscape:window-y="-9"
     inkscape:window-maximized="1"
     inkscape:current-layer="layer1" />
  <defs
     id="defs1" />
  <g
     inkscape:label="Layer 1"
     inkscape:groupmode="layer"
     id="layer1">
    <g
       id="g32"
       transform="matrix(1.421567,0,0,1.421567,47.763825,30.728101)"
       inkscape:label="OA">
      <path
         style="display:inline;opacity:1;fill:none;stroke:#000000;stroke-width:1;stroke-linecap:round;stroke-linejoin:round;stroke-dasharray:none"
         d="m -25.696194,-1.4764258 6.27558,-12.5511492 c 0,0 -6.19906,1.72576 -8.30851,5.1707197 -3.14721,5.1397296 2.03293,7.3804295 2.03293,7.3804295 z"
         id="path16"
         sodipodi:nodetypes="ccsc" />
      <path
         style="display:inline;opacity:1;fill:none;stroke:#000000;stroke-width:1;stroke-linecap:round;stroke-linejoin:round;stroke-dasharray:none"
         d="m -16.958424,-14.484965 6.6875,11.5937492 c 0,0 5.9206496,-4.9293995 3.8749996,-8.5624992 -1.74337,-3.09625 -10.5624996,-3.03125 -10.5624996,-3.03125 z"
         id="path17"
         sodipodi:nodetypes="ccsc" />
      <path
         style="display:inline;opacity:1;fill:none;stroke:#000000;stroke-width:1;stroke-linecap:round;stroke-linejoin:round;stroke-dasharray:none"
         d="m -18.227376,-3.2883898 -3.31456,5.10443 3.0494,4.92765 3.22617,-5.3254 z"
         id="path18"
         sodipodi:nodetypes="ccccc" />
      <path
         style="opacity:1;fill:none;stroke:#000000;stroke-width:1;stroke-linecap:round;stroke-linejoin:round;stroke-dasharray:none"
         d="m -29.364304,5.1526942 3.53553,1.98874 7.29204,-14.6724695 7.95495,14.0979495 4.4194196,-2.56327 -1.90035,-3.04939 c 0,0 6.69138,-4.4588799 5.08233,-11.1369392 -0.71486,-2.96689 -3.63108,-7.61631 -15.3795696,-6.14299 -5.07499,0.63643 -11.5878,4.12552 -12.28598,9.1923897 -0.54274,3.9387495 3.0052,9.1481995 3.0052,9.1481995 z"
         id="path25"
         sodipodi:nodetypes="ccccccssscc" />
    </g>
  </g>
</svg>
